<?xml version="1.0" encoding="UTF-8" standalone="no"?><svg width="26" height="31" viewBox="0 0 26 31" fill="none" xmlns="http://www.w3.org/2000/svg">
<path d="M23.4309 7.7079L10.0239 0.130522C9.36639 -0.24079 8.54688 0.224327 8.54688 0.968254V4.66053C8.54688 5.00579 8.73548 5.32498 9.04097 5.49826L14.5132 8.58992C14.9197 8.81923 15.1694 9.24395 15.1694 9.70256V19.1339C15.1694 19.4791 15.358 19.7983 15.6635 19.9716L24.1827 24.7843C24.8402 25.1557 25.661 24.6892 25.6597 23.9453L25.6464 11.4575C25.6451 9.90841 24.8016 8.47788 23.4323 7.70529L23.4309 7.7079Z" fill="#0F0B19"/>
<path d="M1.47698 6.21432L9.99487 11.0283C10.3004 11.2003 10.489 11.5208 10.489 11.8661V21.2961C10.489 21.756 10.7387 22.1794 11.1451 22.4087L16.6174 25.5017C16.9229 25.6737 17.1101 25.9942 17.1101 26.3394V30.0304C17.1101 30.7743 16.2893 31.2394 15.6332 30.8681L2.2261 23.2921C0.856703 22.5195 0.0132822 21.0889 0.011954 19.5399L0 7.05335C0 6.30942 0.820841 5.843 1.47698 6.21432Z" fill="#0F0B19"/>
</svg>
